<svg width="188" height="53" viewBox="0 0 188 53" fill="none" xmlns="http://www.w3.org/2000/svg">
<path d="M58.08 34.76C58.08 35.5867 58.1467 36.1867 58.28 36.56C58.4133 36.9333 58.6667 37.1867 59.04 37.32C59.44 37.4533 60.0667 37.52 60.92 37.52C61 37.52 61.04 37.6 61.04 37.76C61.04 37.92 61 38 60.92 38C60.04 38 59.3467 37.9867 58.84 37.96L55.8 37.92L52.84 37.96C52.3067 37.9867 51.5867 38 50.68 38C50.6267 38 50.6 37.92 50.6 37.76C50.6 37.6 50.6267 37.52 50.68 37.52C51.5333 37.52 52.16 37.4533 52.56 37.32C52.96 37.1867 53.2267 36.9333 53.36 36.56C53.52 36.16 53.6 35.56 53.6 34.76V16.24C53.6 15.44 53.52 14.8533 53.36 14.48C53.2267 14.1067 52.96 13.8533 52.56 13.72C52.16 13.56 51.5333 13.48 50.68 13.48C50.6267 13.48 50.6 13.4 50.6 13.24C50.6 13.08 50.6267 13 50.68 13L52.84 13.04C54.0667 13.0933 55.0533 13.12 55.8 13.12C56.6267 13.12 57.6533 13.0933 58.88 13.04L60.92 13C61 13 61.04 13.08 61.04 13.24C61.04 13.4 61 13.48 60.92 13.48C60.0933 13.48 59.48 13.56 59.08 13.72C58.68 13.88 58.4133 14.16 58.28 14.56C58.1467 14.9333 58.08 15.52 58.08 16.32V34.76ZM83.0319 37.52C83.1119 37.52 83.1519 37.6 83.1519 37.76C83.1519 37.92 83.1119 38 83.0319 38C82.3385 38 81.7919 37.9867 81.3919 37.96L78.9919 37.92L76.6719 37.96C76.2452 37.9867 75.6852 38 74.9919 38C74.9119 38 74.8719 37.92 74.8719 37.76C74.8719 37.6 74.9119 37.52 74.9919 37.52C75.8185 37.52 76.3785 37.3333 76.6719 36.96C76.9652 36.56 77.1119 35.8267 77.1119 34.76V29C77.1119 27.56 76.8452 26.4933 76.3119 25.8C75.8052 25.1067 74.9919 24.76 73.8719 24.76C73.2319 24.76 72.5652 24.8933 71.8719 25.16C71.2052 25.4267 70.6185 25.7867 70.1119 26.24V34.76C70.1119 35.8267 70.2585 36.56 70.5519 36.96C70.8719 37.3333 71.4452 37.52 72.2719 37.52C72.3519 37.52 72.3919 37.6 72.3919 37.76C72.3919 37.92 72.3519 38 72.2719 38C71.5785 38 71.0319 37.9867 70.6319 37.96L68.2319 37.92L65.8719 37.96C65.4719 37.9867 64.9252 38 64.2319 38C64.1519 38 64.1119 37.92 64.1119 37.76C64.1119 37.6 64.1519 37.52 64.2319 37.52C65.0585 37.52 65.6185 37.3333 65.9119 36.96C66.2052 36.56 66.3519 35.8267 66.3519 34.76V27.24C66.3519 26.4133 66.2452 25.8133 66.0319 25.44C65.8452 25.04 65.5385 24.84 65.1119 24.84C64.6585 24.84 64.0185 25.0267 63.1919 25.4H63.1119C63.0319 25.4 62.9652 25.3333 62.9119 25.2C62.8852 25.0667 62.8985 24.9867 62.9519 24.96L68.5119 22.24C68.6719 22.1867 68.7652 22.16 68.7919 22.16C69.0852 22.16 69.3652 22.4533 69.6319 23.04C69.8985 23.6 70.0585 24.3733 70.1119 25.36C71.9519 23.1733 73.9785 22.08 76.1919 22.08C77.6319 22.08 78.7652 22.5467 79.5919 23.48C80.4452 24.3867 80.8719 25.5867 80.8719 27.08V34.76C80.8719 35.8267 81.0185 36.56 81.3119 36.96C81.6319 37.3333 82.2052 37.52 83.0319 37.52ZM96.6866 35.2C96.7932 35.2 96.8732 35.2533 96.9266 35.36C97.0066 35.4667 97.0066 35.5467 96.9266 35.6C95.9399 36.5867 94.9799 37.32 94.0466 37.8C93.1132 38.2533 92.1266 38.48 91.0866 38.48C89.9132 38.48 88.9132 38.2 88.0866 37.64C87.2599 37.08 86.8466 36.1333 86.8466 34.8V25.92C86.8466 25.0933 86.6999 24.52 86.4066 24.2C86.1132 23.88 85.5799 23.72 84.8066 23.72C84.7799 23.72 84.7399 23.68 84.6866 23.6C84.6599 23.52 84.6466 23.44 84.6466 23.36C84.6466 23.2533 84.6599 23.1733 84.6866 23.12C84.7132 23.04 84.7532 23 84.8066 23C86.1666 22.9467 87.2599 22.6533 88.0866 22.12C88.9399 21.5867 89.5932 20.7733 90.0466 19.68C90.0999 19.5733 90.2066 19.52 90.3666 19.52C90.5532 19.52 90.6466 19.5733 90.6466 19.68V22.88C92.1932 22.8533 93.9266 22.7333 95.8466 22.52C95.8999 22.52 95.9532 22.6267 96.0066 22.84C96.0866 23.0267 96.1266 23.24 96.1266 23.48C96.1266 23.7467 96.0732 24.0133 95.9666 24.28C95.8866 24.52 95.7932 24.6267 95.6866 24.6C93.9532 24.2267 92.2732 24.0267 90.6466 24V33.48C90.6466 34.4933 90.8999 35.24 91.4066 35.72C91.9399 36.2 92.6332 36.44 93.4866 36.44C94.5532 36.44 95.5932 36.04 96.6066 35.24L96.6866 35.2ZM112.684 35.36C112.737 35.36 112.791 35.4133 112.844 35.52C112.924 35.6267 112.937 35.7067 112.884 35.76C111.897 36.72 110.897 37.4133 109.884 37.84C108.871 38.2667 107.764 38.48 106.564 38.48C104.884 38.48 103.431 38.1333 102.204 37.44C100.977 36.72 100.044 35.7733 99.4041 34.6C98.7641 33.4 98.4441 32.1067 98.4441 30.72C98.4441 29.1733 98.8307 27.7467 99.6041 26.44C100.377 25.1333 101.444 24.1067 102.804 23.36C104.191 22.5867 105.751 22.2 107.484 22.2C109.137 22.2 110.417 22.5733 111.324 23.32C112.231 24.0667 112.684 25.2267 112.684 26.8C112.684 27.6267 112.537 28.04 112.244 28.04L102.524 28.08C102.497 28.2667 102.484 28.5733 102.484 29C102.484 31.3467 103.017 33.1867 104.084 34.52C105.177 35.8533 106.737 36.52 108.764 36.52C109.484 36.52 110.097 36.44 110.604 36.28C111.111 36.12 111.777 35.8267 112.604 35.4L112.684 35.36ZM105.964 23C105.084 23 104.351 23.3867 103.764 24.16C103.177 24.9067 102.791 25.9467 102.604 27.28L108.404 27.2C108.377 25.84 108.177 24.8 107.804 24.08C107.431 23.36 106.817 23 105.964 23ZM125.843 22.16C126.456 22.16 127.043 22.3867 127.603 22.84C128.189 23.2667 128.483 23.7867 128.483 24.4C128.483 24.96 128.309 25.4267 127.963 25.8C127.616 26.1467 127.163 26.32 126.603 26.32C126.203 26.32 125.869 26.24 125.603 26.08C125.363 25.92 125.109 25.68 124.843 25.36C124.603 25.0933 124.389 24.9067 124.203 24.8C124.043 24.6667 123.843 24.6 123.603 24.6C123.336 24.6 123.043 24.7067 122.723 24.92C122.429 25.1067 121.963 25.52 121.323 26.16V34.76C121.323 35.8267 121.576 36.56 122.083 36.96C122.589 37.3333 123.523 37.52 124.883 37.52C124.989 37.52 125.043 37.6 125.043 37.76C125.043 37.92 124.989 38 124.883 38C123.949 38 123.216 37.9867 122.683 37.96L119.443 37.92L117.083 37.96C116.683 37.9867 116.136 38 115.443 38C115.363 38 115.323 37.92 115.323 37.76C115.323 37.6 115.363 37.52 115.443 37.52C116.269 37.52 116.829 37.3333 117.123 36.96C117.416 36.56 117.563 35.8267 117.563 34.76V27.24C117.563 26.4133 117.456 25.8133 117.243 25.44C117.056 25.04 116.749 24.84 116.323 24.84C115.869 24.84 115.229 25.0267 114.403 25.4H114.323C114.243 25.4 114.176 25.3333 114.123 25.2C114.096 25.0667 114.109 24.9867 114.163 24.96L119.723 22.24C119.883 22.1867 119.976 22.16 120.003 22.16C120.296 22.16 120.563 22.44 120.803 23C121.069 23.5333 121.229 24.2667 121.283 25.2C122.376 24.08 123.269 23.2933 123.963 22.84C124.683 22.3867 125.309 22.16 125.843 22.16ZM134.439 18.2C133.666 18.2 133.066 17.9867 132.639 17.56C132.212 17.1333 131.999 16.5333 131.999 15.76C131.999 15.0667 132.212 14.52 132.639 14.12C133.092 13.6933 133.692 13.48 134.439 13.48C135.186 13.48 135.759 13.68 136.159 14.08C136.559 14.48 136.759 15.04 136.759 15.76C136.759 16.5333 136.559 17.1333 136.159 17.56C135.759 17.9867 135.186 18.2 134.439 18.2ZM130.599 38C130.519 38 130.479 37.92 130.479 37.76C130.479 37.6 130.519 37.52 130.599 37.52C131.426 37.52 131.986 37.3333 132.279 36.96C132.572 36.56 132.719 35.8267 132.719 34.76V27.6C132.719 26.6933 132.626 26.04 132.439 25.64C132.252 25.24 131.946 25.04 131.519 25.04C131.172 25.04 130.679 25.1867 130.039 25.48H129.999C129.892 25.48 129.812 25.4133 129.759 25.28C129.706 25.12 129.719 25.0267 129.799 25L135.839 22.2L135.959 22.16C136.092 22.16 136.226 22.2267 136.359 22.36C136.492 22.4933 136.559 22.6133 136.559 22.72V23.6C136.506 24.6667 136.479 25.9733 136.479 27.52V34.76C136.479 35.8267 136.626 36.56 136.919 36.96C137.239 37.3333 137.812 37.52 138.639 37.52C138.719 37.52 138.759 37.6 138.759 37.76C138.759 37.92 138.719 38 138.639 38C137.946 38 137.399 37.9867 136.999 37.96L134.599 37.92L132.239 37.96C131.839 37.9867 131.292 38 130.599 38ZM149.027 38.52C147.374 38.52 145.92 38.1467 144.667 37.4C143.44 36.6267 142.494 35.6 141.827 34.32C141.16 33.0133 140.827 31.6 140.827 30.08C140.827 28.3467 141.267 26.88 142.147 25.68C143.027 24.4533 144.147 23.5467 145.507 22.96C146.867 22.3467 148.267 22.04 149.707 22.04C151.36 22.04 152.8 22.4267 154.027 23.2C155.254 23.9733 156.187 25 156.827 26.28C157.494 27.5333 157.827 28.88 157.827 30.32C157.827 31.92 157.427 33.3467 156.627 34.6C155.827 35.8267 154.747 36.7867 153.387 37.48C152.054 38.1733 150.6 38.52 149.027 38.52ZM150.227 37.68C151.267 37.68 152.054 37.1733 152.587 36.16C153.147 35.12 153.427 33.64 153.427 31.72C153.427 29.8533 153.187 28.2533 152.707 26.92C152.227 25.5867 151.6 24.5867 150.827 23.92C150.054 23.2267 149.227 22.88 148.347 22.88C146.214 22.88 145.147 24.7867 145.147 28.6C145.147 30.3867 145.374 31.9733 145.827 33.36C146.28 34.72 146.894 35.7867 147.667 36.56C148.44 37.3067 149.294 37.68 150.227 37.68ZM171.077 22.16C171.691 22.16 172.277 22.3867 172.837 22.84C173.424 23.2667 173.717 23.7867 173.717 24.4C173.717 24.96 173.544 25.4267 173.197 25.8C172.851 26.1467 172.397 26.32 171.837 26.32C171.437 26.32 171.104 26.24 170.837 26.08C170.597 25.92 170.344 25.68 170.077 25.36C169.837 25.0933 169.624 24.9067 169.437 24.8C169.277 24.6667 169.077 24.6 168.837 24.6C168.571 24.6 168.277 24.7067 167.957 24.92C167.664 25.1067 167.197 25.52 166.557 26.16V34.76C166.557 35.8267 166.811 36.56 167.317 36.96C167.824 37.3333 168.757 37.52 170.117 37.52C170.224 37.52 170.277 37.6 170.277 37.76C170.277 37.92 170.224 38 170.117 38C169.184 38 168.451 37.9867 167.917 37.96L164.677 37.92L162.317 37.96C161.917 37.9867 161.371 38 160.677 38C160.597 38 160.557 37.92 160.557 37.76C160.557 37.6 160.597 37.52 160.677 37.52C161.504 37.52 162.064 37.3333 162.357 36.96C162.651 36.56 162.797 35.8267 162.797 34.76V27.24C162.797 26.4133 162.691 25.8133 162.477 25.44C162.291 25.04 161.984 24.84 161.557 24.84C161.104 24.84 160.464 25.0267 159.637 25.4H159.557C159.477 25.4 159.411 25.3333 159.357 25.2C159.331 25.0667 159.344 24.9867 159.397 24.96L164.957 22.24C165.117 22.1867 165.211 22.16 165.237 22.16C165.531 22.16 165.797 22.44 166.037 23C166.304 23.5333 166.464 24.2667 166.517 25.2C167.611 24.08 168.504 23.2933 169.197 22.84C169.917 22.3867 170.544 22.16 171.077 22.16ZM178.993 24.48C178.993 25.2533 179.26 25.92 179.793 26.48C180.353 27.04 181.153 27.6267 182.193 28.24C183.207 28.8267 183.953 29.2933 184.433 29.64C184.94 29.96 185.393 30.4267 185.793 31.04C186.193 31.6267 186.393 32.3467 186.393 33.2C186.393 34.1067 186.167 34.96 185.713 35.76C185.26 36.56 184.58 37.2133 183.673 37.72C182.767 38.2 181.687 38.44 180.433 38.44C178.967 38.44 177.58 38.08 176.273 37.36C176.113 37.2 176.033 37.04 176.033 36.88L175.953 32.92C175.953 32.84 176.02 32.8 176.153 32.8C176.313 32.7733 176.407 32.7867 176.433 32.84C176.86 34.1733 177.567 35.3067 178.553 36.24C179.54 37.1733 180.54 37.64 181.553 37.64C182.113 37.64 182.553 37.4667 182.873 37.12C183.22 36.7733 183.393 36.2667 183.393 35.6C183.393 34.6133 183.113 33.84 182.553 33.28C181.993 32.6933 181.167 32.0933 180.073 31.48C179.14 30.9733 178.433 30.56 177.953 30.24C177.473 29.92 177.047 29.4667 176.673 28.88C176.3 28.2933 176.113 27.5733 176.113 26.72C176.113 25.1467 176.673 24 177.793 23.28C178.913 22.5333 180.287 22.16 181.913 22.16C182.527 22.16 183.073 22.2 183.553 22.28C184.06 22.36 184.62 22.52 185.233 22.76C185.473 22.84 185.593 22.9867 185.593 23.2C185.593 23.8667 185.58 24.3867 185.553 24.76L185.513 26.76C185.513 26.84 185.433 26.88 185.273 26.88C185.113 26.88 185.033 26.84 185.033 26.76C185.033 26.2533 184.82 25.7067 184.393 25.12C183.967 24.5067 183.407 23.9867 182.713 23.56C182.047 23.1333 181.353 22.92 180.633 22.92C179.54 22.92 178.993 23.44 178.993 24.48Z" fill="#292F36"/>
<path d="M10 53C10 34.2223 25.2223 19 44 19V19V53H10V53Z" fill="#4D5053"/>
<path d="M0 42C0 23.2223 15.2223 8 34 8V8V42H0V42Z" fill="#CDA274"/>
</svg>
